<?xml version="1.0" encoding="UTF-8"?>
<svg width="100px" height="100px" viewBox="0 0 100 100" version="1.1" xmlns="http://www.w3.org/2000/svg" xmlns:xlink="http://www.w3.org/1999/xlink">
    <!-- Generator: Sketch 52.5 (67469) - http://www.bohemiancoding.com/sketch -->
    <title>icon_pc_error@1x</title>
    <desc>Created with Sketch.</desc>
    <g id="web" stroke="none" stroke-width="1" fill="none" fill-rule="evenodd">
        <g id="5.登录-重置密码-链接失效" transform="translate(-670.000000, -288.000000)">
            <g id="icon_pc_error" transform="translate(670.000000, 288.000000)">
                <circle id="Oval" fill="#FFD400" cx="50" cy="50" r="50"></circle>
                <rect id="Rectangle" fill="#FFFFFF" x="25" y="17" width="50" height="60"></rect>
                <rect id="Rectangle" fill="#E3E3E3" x="32" y="25" width="36" height="4"></rect>
                <rect id="Rectangle" fill="#E3E3E3" x="32" y="35" width="36" height="4"></rect>
                <rect id="Rectangle" fill="#E3E3E3" x="32" y="55" width="36" height="4"></rect>
                <rect id="Rectangle" fill="#E3E3E3" x="32" y="45" width="36" height="4"></rect>
                <rect id="Rectangle" fill="#E3E3E3" x="32" y="65" width="36" height="4"></rect>
                <circle id="Oval" fill="#E6603C" cx="72" cy="69" r="16"></circle>
                <path d="M72,53 C63.163444,53 56,60.163444 56,69 C56,77.836556 63.163444,85 72,85" id="Path" fill="#EE7250"></path>
                <g id="Group" transform="translate(65.000000, 62.000000)" fill="#FFFFFF">
                    <rect id="Rectangle" transform="translate(7.500000, 7.000000) rotate(-315.000000) translate(-7.500000, -7.000000) " x="6" y="-1" width="3" height="16"></rect>
                    <rect id="Rectangle" transform="translate(7.500000, 7.000000) rotate(-45.000000) translate(-7.500000, -7.000000) " x="6" y="-1" width="3" height="16"></rect>
                </g>
            </g>
        </g>
    </g>
</svg>