<?xml version="1.0" encoding="UTF-8"?>
<svg width="60px" height="60px" viewBox="0 0 60 60" version="1.1" xmlns="http://www.w3.org/2000/svg" xmlns:xlink="http://www.w3.org/1999/xlink">
    <!-- Generator: Sketch 52.5 (67469) - http://www.bohemiancoding.com/sketch -->
    <title>icon_Mobile_error@1x</title>
    <desc>Created with Sketch.</desc>
    <g id="触屏" stroke="none" stroke-width="1" fill="none" fill-rule="evenodd">
        <g id="12.错误页" transform="translate(-158.000000, -213.000000)">
            <g id="icon_Mobile_error" transform="translate(158.000000, 213.000000)">
                <circle id="Oval" fill="#FFD400" cx="30" cy="30" r="30"></circle>
                <rect id="Rectangle" fill="#FFFFFF" x="15" y="10.2" width="30" height="36"></rect>
                <rect id="Rectangle" fill="#E3E3E3" x="19.2" y="15" width="21.6" height="2.4"></rect>
                <rect id="Rectangle" fill="#E3E3E3" x="19.2" y="21" width="21.6" height="2.4"></rect>
                <rect id="Rectangle" fill="#E3E3E3" x="19.2" y="33" width="21.6" height="2.4"></rect>
                <rect id="Rectangle" fill="#E3E3E3" x="19.2" y="27" width="21.6" height="2.4"></rect>
                <rect id="Rectangle" fill="#E3E3E3" x="19.2" y="39" width="21.6" height="2.4"></rect>
                <circle id="Oval" fill="#E6603C" cx="43.2" cy="41.4" r="9.6"></circle>
                <path d="M43.2,31.8 C37.8980664,31.8 33.6,36.0980664 33.6,41.4 C33.6,46.7019336 37.8980664,51 43.2,51" id="Path" fill="#EE7250"></path>
                <g id="Group" transform="translate(39.000000, 37.200000)" fill="#FFFFFF">
                    <rect id="Rectangle" transform="translate(4.500000, 4.200000) rotate(-315.000000) translate(-4.500000, -4.200000) " x="3.6" y="-0.6" width="1.8" height="9.6"></rect>
                    <rect id="Rectangle" transform="translate(4.500000, 4.200000) rotate(-45.000000) translate(-4.500000, -4.200000) " x="3.6" y="-0.6" width="1.8" height="9.6"></rect>
                </g>
            </g>
        </g>
    </g>
</svg>