<svg xmlns="http://www.w3.org/2000/svg" viewBox="0 0 510.24 368.5">
    <defs>
      <style>.cls-1{font-size:13.71px;letter-spacing:0.05em;}.cls-1,.cls-4,.cls-5{fill:#EA0015;}.cls-1,.cls-4{font-family:"Noto Sans Japanese", "Lucida Grande", Tahoma, Verdana, sans-serif;}.cls-2{fill:none;stroke-width:2.28px;}.cls-2,.cls-3{stroke:#e5e1df;stroke-miterlimit:10;}.cls-3{fill:#fff;stroke-width:2.43px;}.cls-4{font-size:27.56px;letter-spacing:0.05em;}</style>
    </defs>
    <title>イラスト</title>
    <g id="デザインレイヤー">
        <text class="cls-1" transform="translate(117.79 102.69)">Bank</text>
        <text class="cls-1" transform="translate(333.73 328.5)">Jewelry store</text>
        <line class="cls-2" x1="187.57" y1="83.11" x2="329.61" y2="254.5" />
        <line class="cls-2" x1="187.57" y1="256.29" x2="329.61" y2="83.11" />
        <line class="cls-2" x1="122.81" y1="182.55" x2="398.06" y2="182.55" />
        <rect class="cls-3" x="179.11" y="156.45" width="165.58" height="51.82" rx="10.2" ry="10.2" />
        <text class="cls-4" style="font-size:20px;" transform="translate(205.97 190.05)">Blockchain</text>
        <text class="cls-1" transform="translate(344.9 101.77)">Consumer</text>
        <text class="cls-1" transform="translate(417.04 213.59)">Dealer</text>
        <line class="cls-2" x1="187.57" y1="57.36" x2="331.16" y2="57.36" />
        <line class="cls-2" x1="187.57" y1="277.68" x2="331.16" y2="277.68" />
        <text class="cls-1" transform="translate(49.46 213.59)">Insurance<tspan x="1.68" y="15.99">company</tspan></text>
        <text class="cls-1" transform="translate(101.63 328.5)">Appraiser</text>
        <path class="cls-5" d="M146.09,48.43c6.37,0,11.91-2.4,11.91-5.36V41.52c-2.73,2.18-7.4,3.34-11.91,3.34s-9.18-1.15-11.91-3.34v1.55C134.18,46,139.72,48.43,146.09,48.43Z" />
        <path class="cls-5" d="M136.58,52.19A18.9,18.9,0,0,1,141,50.32a16.13,16.13,0,0,1-6.85-2.85V49C134.18,50.21,135.1,51.3,136.58,52.19Z" />
        <path class="cls-5" d="M155.6,52.19c1.48-.89,2.4-2,2.4-3.16V47.47a16.14,16.14,0,0,1-6.85,2.85A18.92,18.92,0,0,1,155.6,52.19Z" />
        <path class="cls-5" d="M146.09,36.52c6.37,0,11.91-2.4,11.91-5.36s-5.54-5.36-11.91-5.36-11.91,2.4-11.91,5.36S139.72,36.52,146.09,36.52Z" />
        <path class="cls-5" d="M146.09,42.47c6.37,0,11.91-2.4,11.91-5.36V35.56c-2.73,2.19-7.4,3.34-11.91,3.34s-9.18-1.15-11.91-3.34v1.55C134.18,40.08,139.72,42.47,146.09,42.47Z" />
        <path class="cls-5" d="M119.89,77c-4.5,0-9.18-1.15-11.91-3.34v1.55c0,3,5.54,5.36,11.91,5.36a19,19,0,0,0,9.76-2.33,18.79,18.79,0,0,1-1.3-2.7A24.36,24.36,0,0,1,119.89,77Z" />
        <path class="cls-5" d="M119.89,68.67a22.22,22.22,0,0,0,7.2-1.15,18.87,18.87,0,0,1,.57-3.63,24.93,24.93,0,0,1-7.78,1.21c-4.5,0-9.18-1.15-11.91-3.34v1.55C108,66.27,113.52,68.67,119.89,68.67Z" />
        <path class="cls-5" d="M119.89,52C113.52,52,108,54.4,108,57.36s5.54,5.36,11.91,5.36a20.35,20.35,0,0,0,8.82-1.83,19.12,19.12,0,0,1,2.85-4.52C130.49,53.88,125.52,52,119.89,52Z" />
        <path class="cls-5" d="M119.89,74.63a21.69,21.69,0,0,0,7.73-1.35A18.91,18.91,0,0,1,127.1,70a25.22,25.22,0,0,1-7.21,1c-4.5,0-9.18-1.15-11.91-3.34v1.55C108,72.23,113.52,74.63,119.89,74.63Z" />
        <path class="cls-5" d="M146.09,54.38a14.29,14.29,0,1,0,14.29,14.29A14.29,14.29,0,0,0,146.09,54.38Zm1.73,20.55a.18.18,0,0,1-.18.18h-3.1a.18.18,0,0,1-.18-.18V62.42a.18.18,0,0,1,.18-.18h3.1a.18.18,0,0,1,.18.18Z" />
        <line class="cls-2" x1="82.39" y1="102.69" x2="73.97" y2="123.37" />
        <line class="cls-2" x1="439.69" y1="102.69" x2="448.36" y2="123.27" />
        <line class="cls-2" x1="90.78" y1="264.54" x2="82.1" y2="243.96" />
        <line class="cls-2" x1="422.97" y1="266.63" x2="431.4" y2="245.94" />
        <line class="cls-2" x1="379.15" y1="133.89" x2="379.15" y2="224.13" />
        <line class="cls-2" x1="138.06" y1="131.32" x2="138.06" y2="226.7" />
        <path class="cls-5" d="M62,141.83v52.31h18V181.52h5.41v12.63h18V141.83Zm12.63,45.09H69.25v-5.41h5.41Zm0-10.82H69.25V170.7h5.41Zm0-10.82H69.25v-5.41h5.41Zm0-10.82H69.25V149h5.41Zm10.82,21.65H80.07V170.7h5.41Zm0-10.82H80.07v-5.41h5.41Zm0-10.82H80.07V149h5.41ZM96.3,186.93H90.89v-5.41H96.3Zm0-10.82H90.89V170.7H96.3Zm0-10.82H90.89v-5.41H96.3Zm0-10.82H90.89V149H96.3Z" />
        <path class="cls-5" d="M134.34,257l-.89.5-23.69,13.25v37.17h49.18V270.75Zm20.92,47.24H140.58V292.36H128.11v11.89H113.43V272.91l20.92-11.7,20.92,11.7Z" />
        <rect class="cls-5" x="119.24" y="284.27" width="3.67" height="3.67" />
        <rect class="cls-5" x="132.09" y="284.27" width="3.67" height="3.67" />
        <rect class="cls-5" x="145.12" y="284.27" width="3.67" height="3.67" />
        <rect class="cls-5" x="119.24" y="275.83" width="3.67" height="3.67" />
        <rect class="cls-5" x="132.09" y="275.83" width="3.67" height="3.67" />
        <rect class="cls-5" x="145.12" y="275.83" width="3.67" height="3.67" />
        <rect class="cls-5" x="119.24" y="292.72" width="3.67" height="3.67" />
        <rect class="cls-5" x="145.12" y="292.72" width="3.67" height="3.67" />
        <polygon class="cls-5" points="407.7 269.77 407.7 269.76 398.37 260.2 392.22 269.77 407.7 269.77" />
        <polygon class="cls-5" points="370.48 273.65 378.3 302.95 386.13 273.65 370.48 273.65" />
        <polygon class="cls-5" points="371.68 269.77 384.85 269.77 384.85 269.76 378.16 260.55 371.68 269.76 371.68 269.77" />
        <polygon class="cls-5" points="388.56 268.27 394.48 259.07 381.89 259.07 388.56 268.27 388.56 268.27" />
        <polygon class="cls-5" points="374.46 259.07 362.13 259.07 368.02 268.23 374.46 259.07" />
        <polygon class="cls-5" points="358.24 260.2 348.91 269.76 348.91 269.77 364.39 269.77 358.24 260.2" />
        <polygon class="cls-5" points="348.6 273.65 374.16 302.49 374.16 302.49 366.46 273.65 348.6 273.65" />
        <polygon class="cls-5" points="390.15 273.65 382.44 302.49 382.45 302.49 408.01 273.65 390.15 273.65" />
        <path class="cls-5" d="M367.66,41.39s6.45,1.29,14.84-7.1A78.69,78.69,0,0,0,389,42v7.75a14.84,14.84,0,1,0-21.29,0V41.39Z" />
        <path class="cls-5" d="M388.26,58.51c-1,.57-10,20.13-10,20.13s-8.91-19.56-10-20.13c-10,3.62-10.48,11.73-10.48,24.46h40.87C398.74,70.23,398.29,62.13,388.26,58.51Z" />
        <polygon class="cls-5" points="373.86 57.63 373.86 63.56 378.3 62.05 382.75 63.56 382.75 57.63 378.3 59.14 373.86 57.63" />
        <path class="cls-5" d="M438.32,166.09c.57,1.89,3.51,2.17,5.27.51-2.63.13-2.91-1.82-5.24-1.85h-.06c-2.33,0-2.62,2-5.24,1.85C434.81,168.26,437.75,168,438.32,166.09Z" />
        <polygon class="cls-5" points="438.21 182.04 436.75 182.04 435.96 188.34 438.21 192.71 440.46 188.34 439.67 182.04 438.21 182.04" />
        <path class="cls-5" d="M459.25,184a11.19,11.19,0,0,0-5.6-4.06c-1-.38-2-.66-2.88-.9s-1.63-.44-2.14-.63a11.68,11.68,0,0,1-2.49-1.22,3.13,3.13,0,0,1-.73-.67.81.81,0,0,1-.19-.47v-3.34a13.46,13.46,0,0,0,3.46-6.36,4.28,4.28,0,0,0,.69-.38,4.63,4.63,0,0,0,1.43-1.71,16.18,16.18,0,0,0,1.14-3.08,4.73,4.73,0,0,0,.2-1.28,2.27,2.27,0,0,0-.42-1.39,1.76,1.76,0,0,0-.18-.2,15.27,15.27,0,0,0,1.46-6.35,11.35,11.35,0,0,0-1.42-5.65,8.45,8.45,0,0,0-3.95-3.61,3.59,3.59,0,0,1-.53-.33c-.43-.3-1-.77-1.72-1.28a23,23,0,0,0-3.91-2.4,12.39,12.39,0,0,0-5.25-1.25l-.73,0a13.23,13.23,0,0,0-3.85.78,10.17,10.17,0,0,0-3.92,2.74c-1.07,1.15-2,2.49-3.19,4A8,8,0,0,0,423,150a19.26,19.26,0,0,0,.93,5.45c.35,1.14.73,2.13,1,2.86a1.79,1.79,0,0,0-.22.24,2.33,2.33,0,0,0-.34,1.27,4.72,4.72,0,0,0,.2,1.28,12.46,12.46,0,0,0,1.57,3.77,4.14,4.14,0,0,0,1,1,4.28,4.28,0,0,0,.69.38,13.46,13.46,0,0,0,3.46,6.36V176a.82.82,0,0,1-.21.48,4.52,4.52,0,0,1-1.33,1,11.79,11.79,0,0,1-1.86.83c-.7.25-1.82.5-3.08.87a15.59,15.59,0,0,0-5.94,2.89,8.7,8.7,0,0,0-2.26,3,10.27,10.27,0,0,0-.88,4.35q0,.59.05,1.22a1.53,1.53,0,0,0,.27.73,3.5,3.5,0,0,0,1,.92,14.39,14.39,0,0,0,3,1.41,56.84,56.84,0,0,0,18.18,2.64A61.81,61.81,0,0,0,454,194.49a24.24,24.24,0,0,0,4.61-1.68,6.88,6.88,0,0,0,1.37-.89,2.68,2.68,0,0,0,.47-.52,1.54,1.54,0,0,0,.27-.73c0-.42.05-.82.05-1.21A9.64,9.64,0,0,0,459.25,184Zm-29.82-18.45-.09-.5-.48-.17a3.08,3.08,0,0,1-.74-.36,2.88,2.88,0,0,1-.89-1.09,14.51,14.51,0,0,1-1-2.74,3,3,0,0,1-.14-.8.61.61,0,0,1,.06-.33s0,0,.1-.07l-.27-.67h0l.18.45h0a1.4,1.4,0,0,1,.52-.08,4.35,4.35,0,0,1,1.11.18l.4.12.11,0h0l1.07.43-.21-1.14s0-.24-.11-.63c-.1-.59-.25-1.51-.37-2.42a20.77,20.77,0,0,1-.22-2.36,7,7,0,0,1,.16-1.71,2,2,0,0,1,.3-.69,1.28,1.28,0,0,1,.71-.49,4.89,4.89,0,0,1,1.42-.16c1.48,0,3.69.29,6.63.29,3.17,0,5.68-.41,7.39-.4a5.69,5.69,0,0,1,1.38.13,1.6,1.6,0,0,1,1.1.77,4.56,4.56,0,0,1,.42,2.25,27.49,27.49,0,0,1-.35,3.27c-.09.59-.18,1.13-.24,1.52s-.11.63-.11.63l-.21,1.14,1.07-.43h0a5.26,5.26,0,0,1,1.64-.35,1.55,1.55,0,0,1,.43.05l.18-.61-.25.84c.11,0,.14.06.16.09a.56.56,0,0,1,.07.34,3,3,0,0,1-.14.8,10.93,10.93,0,0,1-1.31,3.24,2.37,2.37,0,0,1-.58.59,3.08,3.08,0,0,1-.74.36l-.48.17-.09.5a11.85,11.85,0,0,1-3.37,6.23l-.22.25v4s0,0,0,.06l-4.61,3h-1.43L433,176.2c0-.06,0-.12,0-.18v-4l-.22-.25A11.85,11.85,0,0,1,429.43,165.53Zm15.21,12.67-2.69,4-2.2-2.35,0-.48,3.87-2.51a2.86,2.86,0,0,0,.35.62A4.32,4.32,0,0,0,444.64,178.2Zm-8,1.76-2.13,2.28-2.7-4a4.42,4.42,0,0,0,.62-.64,3,3,0,0,0,.33-.55l3.86,2.5Zm1.71,14.66H438l-7.86-15.34a9.92,9.92,0,0,0,1-.6l3.22,4.83,2.3-2.46v.26h2.91l0-.33,2.37,2.53,3.22-4.83.54.33.45.23Z" />
    </g>
</svg>