<?xml version="1.0" encoding="utf-8"?>
<!-- Generator: Adobe Illustrator 21.1.0, SVG Export Plug-In . SVG Version: 6.00 Build 0)  -->
<svg version="1.1" id="レイヤー_1" xmlns="http://www.w3.org/2000/svg" xmlns:xlink="http://www.w3.org/1999/xlink" x="0px"
	 y="0px" viewBox="0 0 357.2 255.1" style="enable-background:new 0 0 357.2 255.1;" xml:space="preserve">
<style type="text/css">
	.st0{fill-rule:evenodd;clip-rule:evenodd;fill:#CDCAC9;}
	.st1{fill:#EA532D;}
	.st2{font-family:'HelveticaNeue-Medium';}
	.st3{font-size:15.6495px;}
	.st4{fill:#5E5753;}
	.st5{font-family:'KozGoPr6N-Regular-83pv-RKSJ-H';}
	.st6{font-size:7.3031px;}
	.st7{fill:#FFFFFF;}
	.st8{font-size:11.3698px;}
	.st9{fill:#FFFFFF;stroke:#9C9693;stroke-width:0.6831;stroke-miterlimit:10;}
</style>
<g>
	<g>
		<path class="st0" d="M71.9,129.1l6.5,9.9c0.5,0.8,0.3,2-0.5,2.5c-0.8,0.5-2,0.3-2.5-0.5l-3.2-4.9l-0.1,16.8c0,1-0.8,1.8-1.8,1.8
			c-1,0-1.8-0.8-1.8-1.8l0.1-16.8l-3.3,4.8c-0.6,0.8-1.7,1-2.5,0.5c-0.5-0.4-0.8-0.9-0.8-1.5c0-0.3,0.1-0.7,0.3-1l6.6-9.8
			c0.3-0.5,0.9-0.8,1.5-0.8C71,128.3,71.6,128.6,71.9,129.1z"/>
		<path class="st0" d="M93.8,153.9l-6.5-9.9c-0.5-0.8-0.3-2,0.5-2.5c0.8-0.5,2-0.3,2.5,0.5l3.2,4.9l0.1-16.8c0-1,0.8-1.8,1.8-1.8
			c1,0,1.8,0.8,1.8,1.8l-0.1,16.8l3.3-4.8c0.6-0.8,1.7-1,2.5-0.5c0.5,0.4,0.8,0.9,0.8,1.5c0,0.3-0.1,0.7-0.3,1l-6.6,9.8
			c-0.3,0.5-0.9,0.8-1.5,0.8C94.7,154.7,94.1,154.4,93.8,153.9z"/>
	</g>
	<path class="st0" d="M178.8,153.9l-6.5-9.9c-0.5-0.8-0.3-2,0.5-2.5c0.8-0.5,2-0.3,2.5,0.5l3.2,4.9l0.1-16.8c0-1,0.8-1.8,1.8-1.8
		c1,0,1.8,0.8,1.8,1.8l-0.1,16.8l3.3-4.8c0.6-0.8,1.7-1,2.5-0.5c0.5,0.4,0.8,0.9,0.8,1.5c0,0.3-0.1,0.7-0.3,1l-6.6,9.8
		c-0.3,0.5-0.9,0.8-1.5,0.8C179.7,154.7,179.1,154.4,178.8,153.9z"/>
	<g>
		<text transform="matrix(1 0 0 1 136.795 233.0621)"><tspan x="0" y="0" class="st1 st2 st3">B</tspan><tspan x="11.8" y="0" class="st1 st2 st3">l</tspan><tspan x="16.3" y="0" class="st1 st2 st3">o</tspan><tspan x="26.4" y="0" class="st1 st2 st3">c</tspan><tspan x="35.8" y="0" class="st1 st2 st3">k</tspan><tspan x="44.6" y="0" class="st1 st2 st3">c</tspan><tspan x="54.1" y="0" class="st1 st2 st3">h</tspan><tspan x="63.9" y="0" class="st1 st2 st3">a</tspan><tspan x="73.4" y="0" class="st1 st2 st3">i</tspan><tspan x="77.9" y="0" class="st1 st2 st3">n</tspan></text>
		<g>
			<text transform="matrix(1 0 0 1 136.795 233.0621)"><tspan x="0" y="0" class="st4 st2 st3">B</tspan><tspan x="11.8" y="0" class="st4 st2 st3">l</tspan><tspan x="16.3" y="0" class="st4 st2 st3">o</tspan><tspan x="26.4" y="0" class="st4 st2 st3">c</tspan><tspan x="35.8" y="0" class="st4 st2 st3">k</tspan><tspan x="44.6" y="0" class="st4 st2 st3">c</tspan><tspan x="54.1" y="0" class="st4 st2 st3">h</tspan><tspan x="63.9" y="0" class="st4 st2 st3">a</tspan><tspan x="73.4" y="0" class="st4 st2 st3">i</tspan><tspan x="77.9" y="0" class="st4 st2 st3">n</tspan></text>
		</g>
	</g>
	<g>
		<text transform="matrix(1 0 0 1 112.0411 142.5992)"><tspan x="0" y="0" class="st4 st5 st6">E</tspan><tspan x="4" y="0" class="st4 st5 st6">v</tspan><tspan x="8.1" y="0" class="st4 st5 st6">a</tspan><tspan x="12.1" y="0" class="st4 st5 st6">lu</tspan><tspan x="18.7" y="0" class="st4 st5 st6">a</tspan><tspan x="22.7" y="0" class="st4 st5 st6">t</tspan><tspan x="25.5" y="0" class="st4 st5 st6">i</tspan><tspan x="27.6" y="0" class="st4 st5 st6">o</tspan><tspan x="32.2" y="0" class="st4 st5 st6">n</tspan></text>
	</g>
	<g>
		<text transform="matrix(1 0 0 1 19.2295 142.5997)"><tspan x="0" y="0" class="st4 st5 st6">D</tspan><tspan x="5.5" y="0" class="st4 st5 st6">O</tspan><tspan x="11.2" y="0" class="st4 st5 st6">R </tspan><tspan x="17.4" y="0" class="st4 st5 st6">C</tspan><tspan x="22" y="0" class="st4 st5 st6">O</tspan><tspan x="27.7" y="0" class="st4 st5 st6">I</tspan><tspan x="29.7" y="0" class="st4 st5 st6">N</tspan></text>
	</g>
	<g>
		<rect x="55.2" y="164.1" class="st7" width="54.7" height="38.7"/>
		<path class="st4" d="M56.6,205.1h52.9c1.8,0,3.2-1.5,3.2-3.2v-37.2c0-1.8-1.5-3.2-3.2-3.2H56.6c-1.8,0-3.2,1.5-3.2,3.2v37.2
			C53.3,203.7,54.8,205.1,56.6,205.1z M57.5,165.6h50.9v35.3H57.5V165.6z"/>
		<path class="st4" d="M48.1,207v0.8c0,1.4,1.2,2.6,2.6,2.6h63.9c1.4,0,2.6-1.2,2.6-2.6V207H48.1z"/>
	</g>
	<g>
		<g>
			<rect x="150.5" y="164.1" class="st7" width="54.7" height="38.7"/>
			<path class="st4" d="M151.9,205.1h52.9c1.8,0,3.2-1.5,3.2-3.2v-37.2c0-1.8-1.5-3.2-3.2-3.2h-52.9c-1.8,0-3.2,1.5-3.2,3.2v37.2
				C148.7,203.7,150.1,205.1,151.9,205.1z M152.9,165.6h50.9v35.3h-50.9V165.6z"/>
			<path class="st4" d="M143.4,207v0.8c0,1.4,1.2,2.6,2.6,2.6h63.9c1.4,0,2.6-1.2,2.6-2.6V207H143.4z"/>
		</g>
		<g>
			<text transform="matrix(1 0 0 1 162.3384 188.3014)"><tspan x="0" y="0" class="st4 st5 st8">M</tspan><tspan x="10.1" y="0" class="st4 st5 st8">o</tspan><tspan x="16.9" y="0" class="st4 st5 st8">v</tspan><tspan x="23" y="0" class="st4 st5 st8">i</tspan><tspan x="26" y="0" class="st4 st5 st8">e</tspan></text>
		</g>
	</g>
	<g>
		<g>
			<rect x="245.9" y="164.1" class="st7" width="54.7" height="38.7"/>
			<path class="st4" d="M247.3,205.1h52.9c1.8,0,3.2-1.5,3.2-3.2v-37.2c0-1.8-1.5-3.2-3.2-3.2h-52.9c-1.8,0-3.2,1.5-3.2,3.2v37.2
				C244,203.7,245.5,205.1,247.3,205.1z M248.2,165.6h50.9v35.3h-50.9V165.6z"/>
			<path class="st4" d="M238.8,207v0.8c0,1.4,1.2,2.6,2.6,2.6h63.9c1.4,0,2.6-1.2,2.6-2.6V207H238.8z"/>
		</g>
		<g>
			<text transform="matrix(1 0 0 1 257.6944 188.3014)"><tspan x="0" y="0" class="st4 st5 st8">M</tspan><tspan x="10.1" y="0" class="st4 st5 st8">o</tspan><tspan x="16.9" y="0" class="st4 st5 st8">v</tspan><tspan x="23" y="0" class="st4 st5 st8">i</tspan><tspan x="26" y="0" class="st4 st5 st8">e</tspan></text>
		</g>
	</g>
	<g>
		<circle class="st9" cx="52" cy="97.2" r="25.2"/>
		<g>
			<path class="st4" d="M67.1,93c-0.6-1.5-2.1-2.5-3.7-2.5h-4.7c-0.2,0-0.3,0-0.4,0c0-0.1,0.1-0.1,0.1-0.1c0.2-0.2,0.3-0.4,0.4-0.6
				c0-0.1,0.1-0.1,0.2-0.2c0.6-0.7,1.8-2.1,2.1-4c0.2-1.1-0.1-2.2-0.9-3c-0.7-0.8-1.6-1.3-2.5-1.3c-0.9,0-1.7,0.5-2.2,1.3
				c-0.1,0.1-0.2,0.3-0.2,0.4c-0.5,0.8-1.4,2.6-2.4,3.2c-1.1,0.8-2,1.8-3,2.8c-1.3,1.4-2.6,2.8-3.6,2.8c-0.8,0-1.5,0.7-1.5,1.5v10.2
				c0,0.8,0.7,1.5,1.5,1.5c1.1,0,3.6,1,5.4,1.7c1.4,0.5,2.6,1,3.4,1.2c0.2,0,0.5,0.1,0.7,0.2c0.9,0.2,2,0.4,3,0.4
				c1.7,0,2.9-0.6,3.8-1.8c0.9-1.2,1.8-4.2,3.1-8.3c0.1-0.3,0.2-0.6,0.3-0.8C67.8,95.6,67.4,93.7,67.1,93z M64.6,96.9
				c-1,3.2-2.4,7.8-3.2,9c-0.7,0.9-1.6,1.2-2.6,1.2c-1.1,0-2.4-0.4-3.5-0.6c-1.8-0.4-6.8-2.8-9.1-2.8V93.4c2.7,0,4.9-4.1,7.5-6
				c1.4-1,2.6-3.3,3-4.1c0.2-0.4,0.5-0.5,0.9-0.5c1,0,2.1,1.1,1.9,2.5c-0.3,1.9-1.8,3.3-2,3.7c-0.2,0.4-1.2,1.5-1.2,2.1
				c0,0.5,0.4,0.9,2.4,0.9c2.5,0,4.2,0,4.7,0C65.4,92,67.2,94.4,64.6,96.9z"/>
			<path class="st4" d="M36.7,94.6v9.5c0,1.2,0.9,2.1,2.1,2.1h2.5c0.8,0,1.4-0.6,1.4-1.4V92.5h-3.9C37.6,92.5,36.7,93.4,36.7,94.6z
				 M39.7,102c0.5,0,1,0.4,1,1c0,0.5-0.4,1-1,1c-0.5,0-1-0.4-1-1C38.7,102.4,39.1,102,39.7,102z"/>
		</g>
	</g>
	<g>
		<circle class="st9" cx="105.1" cy="89.6" r="25.2"/>
		<g>
			<path class="st4" d="M120.1,85.4c-0.6-1.5-2.1-2.5-3.7-2.5h-4.7c-0.2,0-0.3,0-0.4,0c0-0.1,0.1-0.1,0.1-0.1
				c0.2-0.2,0.3-0.4,0.4-0.6c0-0.1,0.1-0.1,0.2-0.2c0.6-0.7,1.8-2.1,2.1-4c0.2-1.1-0.1-2.2-0.9-3c-0.7-0.8-1.6-1.3-2.5-1.3
				c-0.9,0-1.7,0.5-2.2,1.3c-0.1,0.1-0.2,0.3-0.2,0.4c-0.5,0.8-1.4,2.6-2.4,3.2c-1.1,0.8-2,1.8-3,2.8c-1.3,1.4-2.6,2.8-3.6,2.8
				c-0.8,0-1.5,0.7-1.5,1.5v10.2c0,0.8,0.7,1.5,1.5,1.5c1.1,0,3.6,1,5.4,1.7c1.4,0.5,2.6,1,3.4,1.2c0.2,0,0.5,0.1,0.7,0.2
				c0.9,0.2,2,0.4,3,0.4c1.7,0,2.9-0.6,3.8-1.8c0.9-1.2,1.8-4.2,3.1-8.3c0.1-0.3,0.2-0.6,0.3-0.8C120.9,88,120.4,86.1,120.1,85.4z
				 M117.6,89.3c-1,3.2-2.4,7.8-3.2,9c-0.7,0.9-1.6,1.2-2.6,1.2c-1.1,0-2.4-0.4-3.5-0.6c-1.8-0.4-6.8-2.8-9.1-2.8V85.8
				c2.7,0,4.9-4.1,7.5-6c1.4-1,2.6-3.3,3-4.1c0.2-0.4,0.5-0.5,0.9-0.5c1,0,2.1,1.1,1.9,2.5c-0.3,1.9-1.8,3.3-2,3.7
				c-0.2,0.4-1.2,1.5-1.2,2.1c0,0.5,0.4,0.9,2.4,0.9c2.5,0,4.2,0,4.7,0C118.4,84.4,120.2,86.8,117.6,89.3z"/>
			<path class="st4" d="M89.7,87v9.5c0,1.2,0.9,2.1,2.1,2.1h2.5c0.8,0,1.4-0.6,1.4-1.4V84.9h-3.9C90.7,84.9,89.7,85.9,89.7,87z
				 M92.7,94.4c0.5,0,1,0.4,1,1c0,0.5-0.4,1-1,1c-0.5,0-1-0.4-1-1C91.7,94.9,92.2,94.4,92.7,94.4z"/>
		</g>
	</g>
	<g>
		<circle class="st9" cx="71" cy="42.9" r="25.2"/>
		<g>
			<path class="st4" d="M86,38.7c-0.6-1.5-2.1-2.5-3.7-2.5h-4.7c-0.2,0-0.3,0-0.4,0c0-0.1,0.1-0.1,0.1-0.1c0.2-0.2,0.3-0.4,0.4-0.6
				c0-0.1,0.1-0.1,0.2-0.2c0.6-0.7,1.8-2.1,2.1-4c0.2-1.1-0.1-2.2-0.9-3c-0.7-0.8-1.6-1.3-2.5-1.3c-0.9,0-1.7,0.5-2.2,1.3
				c-0.1,0.1-0.2,0.3-0.2,0.4c-0.5,0.8-1.4,2.6-2.4,3.2c-1.1,0.8-2,1.8-3,2.8c-1.3,1.4-2.6,2.8-3.6,2.8c-0.8,0-1.5,0.7-1.5,1.5v10.2
				c0,0.8,0.7,1.5,1.5,1.5c1.1,0,3.6,1,5.4,1.7c1.4,0.5,2.6,1,3.4,1.2c0.2,0,0.5,0.1,0.7,0.2c0.9,0.2,2,0.4,3,0.4
				c1.7,0,2.9-0.6,3.8-1.8c0.9-1.2,1.8-4.2,3.1-8.3c0.1-0.3,0.2-0.6,0.3-0.8C86.8,41.3,86.3,39.4,86,38.7z M83.5,42.6
				c-1,3.2-2.4,7.8-3.2,9c-0.7,0.9-1.6,1.2-2.6,1.2c-1.1,0-2.4-0.4-3.5-0.6c-1.8-0.4-6.8-2.8-9.1-2.8V39.2c2.7,0,4.9-4.1,7.5-6
				c1.4-1,2.6-3.3,3-4.1c0.2-0.4,0.5-0.5,0.9-0.5c1,0,2.1,1.1,1.9,2.5c-0.3,1.9-1.8,3.3-2,3.7c-0.2,0.4-1.2,1.5-1.2,2.1
				c0,0.5,0.4,0.9,2.4,0.9c2.5,0,4.2,0,4.7,0C84.3,37.7,86.1,40.1,83.5,42.6z"/>
			<path class="st4" d="M55.6,40.3v9.5c0,1.2,0.9,2.1,2.1,2.1h2.5c0.8,0,1.4-0.6,1.4-1.4V38.2h-3.9C56.6,38.2,55.6,39.2,55.6,40.3z
				 M58.6,47.7c0.5,0,1,0.4,1,1c0,0.5-0.4,1-1,1c-0.5,0-1-0.4-1-1C57.7,48.2,58.1,47.7,58.6,47.7z"/>
		</g>
	</g>
	<g>
		<circle class="st9" cx="179.4" cy="57.3" r="25.2"/>
		<g>
			<path class="st4" d="M194.4,53.1c-0.6-1.5-2.1-2.5-3.7-2.5h-4.7c-0.2,0-0.3,0-0.4,0c0-0.1,0.1-0.1,0.1-0.1
				c0.2-0.2,0.3-0.4,0.4-0.6c0-0.1,0.1-0.1,0.2-0.2c0.6-0.7,1.8-2.1,2.1-4c0.2-1.1-0.1-2.2-0.9-3c-0.7-0.8-1.6-1.3-2.5-1.3
				c-0.9,0-1.7,0.5-2.2,1.3c-0.1,0.1-0.2,0.3-0.2,0.4c-0.5,0.8-1.4,2.6-2.4,3.2c-1.1,0.8-2,1.8-3,2.8c-1.3,1.4-2.6,2.8-3.6,2.8
				c-0.8,0-1.5,0.7-1.5,1.5v10.2c0,0.8,0.7,1.5,1.5,1.5c1.1,0,3.6,1,5.4,1.7c1.4,0.5,2.6,1,3.4,1.2c0.2,0,0.5,0.1,0.7,0.2
				c0.9,0.2,2,0.4,3,0.4c1.7,0,2.9-0.6,3.8-1.8c0.9-1.2,1.8-4.2,3.1-8.3c0.1-0.3,0.2-0.6,0.3-0.8C195.2,55.7,194.7,53.8,194.4,53.1z
				 M191.9,57c-1,3.2-2.4,7.8-3.2,9c-0.7,0.9-1.6,1.2-2.6,1.2c-1.1,0-2.4-0.4-3.5-0.6c-1.8-0.4-6.8-2.8-9.1-2.8V53.5
				c2.7,0,4.9-4.1,7.5-6c1.4-1,2.6-3.3,3-4.1c0.2-0.4,0.5-0.5,0.9-0.5c1,0,2.1,1.1,1.9,2.5c-0.3,1.9-1.8,3.3-2,3.7
				c-0.2,0.4-1.2,1.5-1.2,2.1c0,0.5,0.4,0.9,2.4,0.9c2.5,0,4.2,0,4.7,0C192.7,52.1,194.5,54.5,191.9,57z"/>
			<path class="st4" d="M164,54.7v9.5c0,1.2,0.9,2.1,2.1,2.1h2.5c0.8,0,1.4-0.6,1.4-1.4V52.6h-3.9C165,52.6,164,53.5,164,54.7z
				 M167,62.1c0.5,0,1,0.4,1,1c0,0.5-0.4,1-1,1c-0.5,0-1-0.4-1-1C166,62.5,166.5,62.1,167,62.1z"/>
		</g>
	</g>
	<g>
		<circle class="st9" cx="258" cy="84.6" r="25.2"/>
		<g>
			<path class="st4" d="M273,80.4c-0.6-1.5-2.1-2.5-3.7-2.5h-4.7c-0.2,0-0.3,0-0.4,0c0-0.1,0.1-0.1,0.1-0.1c0.2-0.2,0.3-0.4,0.4-0.6
				c0-0.1,0.1-0.1,0.2-0.2c0.6-0.7,1.8-2.1,2.1-4c0.2-1.1-0.1-2.2-0.9-3c-0.7-0.8-1.6-1.3-2.5-1.3c-0.9,0-1.7,0.5-2.2,1.3
				c-0.1,0.1-0.2,0.3-0.2,0.4c-0.5,0.8-1.4,2.6-2.4,3.2c-1.1,0.8-2,1.8-3,2.8c-1.3,1.4-2.6,2.8-3.6,2.8c-0.8,0-1.5,0.7-1.5,1.5v10.2
				c0,0.8,0.7,1.5,1.5,1.5c1.1,0,3.6,1,5.4,1.7c1.4,0.5,2.6,1,3.4,1.2c0.2,0,0.5,0.1,0.7,0.2c0.9,0.2,2,0.4,3,0.4
				c1.7,0,2.9-0.6,3.8-1.8c0.9-1.2,1.8-4.2,3.1-8.3c0.1-0.3,0.2-0.6,0.3-0.8C273.8,83,273.3,81.1,273,80.4z M270.5,84.3
				c-1,3.2-2.4,7.8-3.2,9c-0.7,0.9-1.6,1.2-2.6,1.2c-1.1,0-2.4-0.4-3.5-0.6c-1.8-0.4-6.8-2.8-9.1-2.8V80.8c2.7,0,4.9-4.1,7.5-6
				c1.4-1,2.6-3.3,3-4.1c0.2-0.4,0.5-0.5,0.9-0.5c1,0,2.1,1.1,1.9,2.5c-0.3,1.9-1.8,3.3-2,3.7c-0.2,0.4-1.2,1.5-1.2,2.1
				c0,0.5,0.4,0.9,2.4,0.9c2.5,0,4.2,0,4.7,0C271.3,79.4,273.1,81.8,270.5,84.3z"/>
			<path class="st4" d="M242.6,82v9.5c0,1.2,0.9,2.1,2.1,2.1h2.5c0.8,0,1.4-0.6,1.4-1.4V79.9h-3.9C243.6,79.9,242.6,80.9,242.6,82z
				 M245.6,89.4c0.5,0,1,0.4,1,1c0,0.5-0.4,1-1,1c-0.5,0-1-0.4-1-1C244.6,89.9,245.1,89.4,245.6,89.4z"/>
		</g>
	</g>
	<g>
		<circle class="st9" cx="313.5" cy="58.7" r="25.2"/>
		<g>
			<path class="st4" d="M328.5,54.4c-0.6-1.5-2.1-2.5-3.7-2.5H320c-0.2,0-0.3,0-0.4,0c0-0.1,0.1-0.1,0.1-0.1
				c0.2-0.2,0.3-0.4,0.4-0.6c0-0.1,0.1-0.1,0.2-0.2c0.6-0.7,1.8-2.1,2.1-4c0.2-1.1-0.1-2.2-0.9-3c-0.7-0.8-1.6-1.3-2.5-1.3
				c-0.9,0-1.7,0.5-2.2,1.3c-0.1,0.1-0.2,0.3-0.2,0.4c-0.5,0.8-1.4,2.6-2.4,3.2c-1.1,0.8-2,1.8-3,2.8c-1.3,1.4-2.6,2.8-3.6,2.8
				c-0.8,0-1.5,0.7-1.5,1.5v10.2c0,0.8,0.7,1.5,1.5,1.5c1.1,0,3.6,1,5.4,1.7c1.4,0.5,2.6,1,3.4,1.2c0.2,0,0.5,0.1,0.7,0.2
				c0.9,0.2,2,0.4,3,0.4c1.7,0,2.9-0.6,3.8-1.8c0.9-1.2,1.8-4.2,3.1-8.3c0.1-0.3,0.2-0.6,0.3-0.8C329.3,57.1,328.8,55.2,328.5,54.4z
				 M326,58.3c-1,3.2-2.4,7.8-3.2,9c-0.7,0.9-1.6,1.2-2.6,1.2c-1.1,0-2.4-0.4-3.5-0.6c-1.8-0.4-6.8-2.8-9.1-2.8V54.9
				c2.7,0,4.9-4.1,7.5-6c1.4-1,2.6-3.3,3-4.1c0.2-0.4,0.5-0.5,0.9-0.5c1,0,2.1,1.1,1.9,2.5c-0.3,1.9-1.8,3.3-2,3.7
				c-0.2,0.4-1.2,1.5-1.2,2.1c0,0.5,0.4,0.9,2.4,0.9c2.5,0,4.2,0,4.7,0C326.8,53.5,328.6,55.9,326,58.3z"/>
			<path class="st4" d="M298.1,56.1v9.5c0,1.2,0.9,2.1,2.1,2.1h2.5c0.8,0,1.4-0.6,1.4-1.4V54h-3.9C299.1,54,298.1,54.9,298.1,56.1z
				 M301.1,63.5c0.5,0,1,0.4,1,1c0,0.5-0.4,1-1,1c-0.5,0-1-0.4-1-1C300.1,63.9,300.6,63.5,301.1,63.5z"/>
		</g>
	</g>
	<g>
		<text transform="matrix(1 0 0 1 196.462 142.5987)"><tspan x="0" y="0" class="st4 st5 st6">E</tspan><tspan x="4" y="0" class="st4 st5 st6">v</tspan><tspan x="8.1" y="0" class="st4 st5 st6">a</tspan><tspan x="12.1" y="0" class="st4 st5 st6">lu</tspan><tspan x="18.7" y="0" class="st4 st5 st6">a</tspan><tspan x="22.7" y="0" class="st4 st5 st6">t</tspan><tspan x="25.5" y="0" class="st4 st5 st6">i</tspan><tspan x="27.6" y="0" class="st4 st5 st6">o</tspan><tspan x="32.2" y="0" class="st4 st5 st6">n</tspan></text>
	</g>
	<path class="st0" d="M273.6,153.9l-6.5-9.9c-0.5-0.8-0.3-2,0.5-2.5c0.8-0.5,2-0.3,2.5,0.5l3.2,4.9l0.1-16.8c0-1,0.8-1.8,1.8-1.8
		c1,0,1.8,0.8,1.8,1.8l-0.1,16.8l3.3-4.8c0.6-0.8,1.7-1,2.5-0.5c0.5,0.4,0.8,0.9,0.8,1.5c0,0.3-0.1,0.7-0.3,1l-6.6,9.8
		c-0.3,0.5-0.9,0.8-1.5,0.8C274.5,154.7,274,154.4,273.6,153.9z"/>
	<g>
		<text transform="matrix(1 0 0 1 291.2993 142.5987)"><tspan x="0" y="0" class="st4 st5 st6">E</tspan><tspan x="4" y="0" class="st4 st5 st6">v</tspan><tspan x="8.1" y="0" class="st4 st5 st6">a</tspan><tspan x="12.1" y="0" class="st4 st5 st6">lu</tspan><tspan x="18.7" y="0" class="st4 st5 st6">a</tspan><tspan x="22.7" y="0" class="st4 st5 st6">t</tspan><tspan x="25.5" y="0" class="st4 st5 st6">i</tspan><tspan x="27.6" y="0" class="st4 st5 st6">o</tspan><tspan x="32.2" y="0" class="st4 st5 st6">n</tspan></text>
	</g>
	<g>
		<path class="st4" d="M70.2,184.9c0,0-0.1,0-0.1,0c0,0-0.1,0.1-0.1,0.1l0.2,2.9c0,0.1,0,0.1-0.1,0.1l-1.8,0.7c0,0-0.1,0.1-0.1,0.1
			c0,0,0,0.1,0.1,0.1l4.8,2.9c0,0,0.1,0,0.1,0c0,0,0.1,0,0.1-0.1l0.7-4.1c0,0,0-0.1,0-0.1L70.2,184.9z"/>
		<path class="st4" d="M97.6,188.7l-1.8-0.7c0,0-0.1-0.1-0.1-0.1L96,185c0,0,0-0.1-0.1-0.1s-0.1,0-0.1,0l-3.8,2.7c0,0-0.1,0.1,0,0.1
			l0.7,4.1c0,0,0,0.1,0.1,0.1c0,0,0.1,0,0.1,0l4.8-2.9C97.7,188.9,97.7,188.9,97.6,188.7C97.7,188.8,97.7,188.7,97.6,188.7z"/>
		<path class="st4" d="M83,191.5c-2.8,0-5.4-0.6-7.8-1.8l-0.8,4.3c2.6,1.1,5.5,1.7,8.5,1.7s5.9-0.6,8.5-1.7l-0.8-4.3
			C88.4,190.8,85.8,191.5,83,191.5z"/>
		<path class="st4" d="M76.8,188.5c1.8,0.7,3.8,1.1,6.2,1.1c2.4,0,4.4-0.4,6.2-1.1c0.2-0.1-0.1-1.8-0.1-1.8
			c-1.7,0.8-3.7,1.2-6.1,1.2s-4.4-0.4-6.1-1.2C76.9,186.6,76.6,188.4,76.8,188.5z"/>
		<path class="st4" d="M83,186.8c0.2,0,0.4-0.2,0.4-0.4S83.2,186,83,186c-0.2,0-0.4,0.2-0.4,0.4S82.8,186.8,83,186.8z"/>
		<polygon class="st4" points="82.3,175.3 83.7,175.3 83.7,173.7 85.2,173.7 85.2,172.4 83.7,172.4 83.7,170.8 82.3,170.8 
			82.3,172.4 80.7,172.4 80.7,173.7 82.3,173.7 		"/>
		<path class="st4" d="M83,185.2c0.2,0,0.4-0.2,0.4-0.4c0-0.2-0.2-0.4-0.4-0.4c-0.2,0-0.4,0.2-0.4,0.4
			C82.6,185.1,82.8,185.2,83,185.2z"/>
		<path class="st4" d="M83,182.9c-0.2,0-0.4,0.2-0.4,0.4c0,0.2,0.2,0.4,0.4,0.4c0.2,0,0.4-0.2,0.4-0.4
			C83.4,183.1,83.2,182.9,83,182.9z"/>
		<path class="st4" d="M83,181.3c-0.2,0-0.4,0.2-0.4,0.4c0,0.2,0.2,0.4,0.4,0.4c0.2,0,0.4-0.2,0.4-0.4S83.2,181.3,83,181.3z"/>
		<path class="st4" d="M83,179.8c-0.2,0-0.4,0.2-0.4,0.4c0,0.2,0.2,0.4,0.4,0.4c0.2,0,0.4-0.2,0.4-0.4
			C83.4,179.9,83.2,179.8,83,179.8z"/>
		<path class="st4" d="M83,178.2c-0.2,0-0.4,0.2-0.4,0.4c0,0.2,0.2,0.4,0.4,0.4c0.2,0,0.4-0.2,0.4-0.4
			C83.4,178.4,83.2,178.2,83,178.2z"/>
		<path class="st4" d="M83,176.7c-0.2,0-0.4,0.2-0.4,0.4c0,0.2,0.2,0.4,0.4,0.4c0.2,0,0.4-0.2,0.4-0.4
			C83.4,176.8,83.2,176.7,83,176.7z"/>
		<path class="st4" d="M80.6,186.6c0.3,0.1,0.9,0.1,1.2,0.1v-1.1v-7.8c0-1.3-1.3-1.9-2.4-1.7c-0.7,0.1-1.8,0.9-1.6,2.5
			C78,181,79.4,184.5,80.6,186.6z"/>
		<path class="st4" d="M79.1,186.3c-0.8-1.3-2.5-5.1-2.8-7.8c0-0.4,0-0.6,0-0.6c0-0.1-0.1-0.2-0.2-0.3c-0.1-0.1-0.2,0-0.3,0
			c0,0-0.3,0.1-0.6,0.4c-1.6,1.5-1.5,4.4,1,7.3C77,185.8,77.9,186.1,79.1,186.3z"/>
		<path class="st4" d="M84.2,177.9v7.8v1.1c0.3,0,0.9,0,1.2-0.1c1.2-2.1,2.6-5.6,2.9-7.8c0.2-1.6-0.9-2.4-1.6-2.5
			C85.5,176,84.2,176.5,84.2,177.9z"/>
		<path class="st4" d="M90.2,177.7c-0.1-0.1-0.2-0.1-0.3,0c-0.1,0.1-0.2,0.2-0.2,0.3c0,0,0,0.2,0,0.6c-0.2,2.7-1.9,6.5-2.8,7.8
			c1.1-0.2,2.1-0.6,2.8-0.9c2.5-2.9,2.6-5.8,1-7.3C90.4,177.8,90.2,177.7,90.2,177.7z"/>
		<polygon class="st4" points="70.9,181.9 71.6,181.5 72.4,181.9 72.2,181.1 72.8,180.5 72,180.4 71.6,179.6 71.3,180.4 70.4,180.5 
			71,181.1 		"/>
		<polygon class="st4" points="74.9,175.9 75.7,175.5 76.4,175.9 76.3,175.1 76.9,174.5 76.1,174.4 75.7,173.6 75.3,174.4 
			74.5,174.5 75.1,175.1 		"/>
		<polygon class="st4" points="93.6,181.9 94.4,181.5 95.1,181.9 95,181.1 95.6,180.5 94.7,180.4 94.4,179.6 94,180.4 93.1,180.5 
			93.7,181.1 		"/>
		<polygon class="st4" points="89.5,175.9 90.3,175.5 91,175.9 90.9,175.1 91.5,174.5 90.7,174.4 90.3,173.6 89.9,174.4 89.1,174.5 
			89.7,175.1 		"/>
	</g>
</g>
</svg>
