<?xml version="1.0" encoding="UTF-8"?>
<svg width="22px" height="26px" viewBox="0 0 22 26" version="1.1" xmlns="http://www.w3.org/2000/svg" xmlns:xlink="http://www.w3.org/1999/xlink">
    <!-- Generator: Sketch 52.5 (67469) - http://www.bohemiancoding.com/sketch -->
    <title>icon_Refresh@1x</title>
    <desc>Created with Sketch.</desc>
    <g id="web" stroke="none" stroke-width="1" fill="none" fill-rule="evenodd">
        <g id="11.1购买代币" transform="translate(-1199.000000, -899.000000)">
            <g id="table" transform="translate(199.000000, 774.000000)">
                <g id="table-2" transform="translate(1.000000, 125.000000)">
                    <g id="table">
                        <g id="icon/Refresh/normel" transform="translate(1000.000000, 0.000000)">
                            <g id="icon_Refresh">
                                <path d="M1.28958553,10.08433 C0.468591755,11.5359814 0,13.2132679 0,15 C0,20.5228475 4.4771525,25 10,25 C15.5228475,25 20,20.5228475 20,15 C20,9.4771525 15.5228475,5 10,5" id="Path" stroke="#5F5753" stroke-width="2" stroke-linecap="round"></path>
                                <path d="M6.91602515,2.09070439 L10.6484333,7.68931657 C10.8016095,7.91908091 10.7395226,8.22951558 10.5097582,8.38269181 C10.4276245,8.43744765 10.3311206,8.46666667 10.2324081,8.46666667 L2.76759188,8.46666667 C2.4914495,8.46666667 2.26759188,8.24280904 2.26759188,7.96666667 C2.26759188,7.86795417 2.29681089,7.77145033 2.35156673,7.68931657 L6.08397485,2.09070439 C6.23715108,1.86094004 6.54758575,1.79885311 6.7773501,1.95202934 C6.83227624,1.98864677 6.87940772,2.03577824 6.91602515,2.09070439 Z" id="Triangle" fill="#5F5753" transform="translate(6.500000, 4.966667) rotate(-90.000000) translate(-6.500000, -4.966667) "></path>
                            </g>
                        </g>
                    </g>
                </g>
            </g>
        </g>
    </g>
</svg>