<?xml version="1.0" encoding="UTF-8"?>
<svg width="40px" height="40px" viewBox="0 0 40 40" version="1.1" xmlns="http://www.w3.org/2000/svg" xmlns:xlink="http://www.w3.org/1999/xlink">
    <!-- Generator: Sketch 52.5 (67469) - http://www.bohemiancoding.com/sketch -->
    <title>icon_2_youtube</title>
    <desc>Created with Sketch.</desc>
    <g id="定稿" stroke="none" stroke-width="1" fill="none" fill-rule="evenodd">
        <g id="1.首页" transform="translate(-32.000000, -1156.000000)">
            <g id="跳转2" transform="translate(32.000000, 1156.000000)">
                <g id="icon_2_youtube">
                    <circle id="Oval" fill="#5F5753" cx="20" cy="20" r="20"></circle>
                    <path d="M26.0459765,9.29054967 L26.0459765,15.9737903 L24.817861,15.9737903 L24.817861,15.2372366 C24.3412396,15.7908017 23.878021,16.0675111 23.4280278,16.0675111 C23.0144049,16.0675111 22.7489199,15.9022472 22.6315432,15.5717487 C22.5594817,15.3572954 22.5234953,15.0225489 22.5234953,14.5675385 L22.5234953,9.29054967 L23.7514927,9.29054967 L23.7514927,14.2060147 C23.7514927,14.5004779 23.7561275,14.6568062 23.765102,14.6747652 C23.7923206,14.8712596 23.8867593,14.9695507 24.0485655,14.9695507 C24.2914077,14.9695507 24.5478887,14.7775388 24.817861,14.3934563 L24.817861,9.29054967 L26.0459765,9.29054967 Z M21.5250555,11.4595465 L21.5250555,13.8032993 C21.5250555,14.5262299 21.3991471,15.0529883 21.1473009,15.3834868 C20.8142417,15.8389659 20.3372956,16.0667201 19.7166693,16.0667201 C19.1140216,16.0667201 18.6416808,15.8389659 18.2996471,15.3834868 C18.0476533,15.0440528 17.9217449,14.5172943 17.9217449,13.8032993 L17.9217449,11.4595465 C17.9217449,10.7449655 18.0476533,10.2227774 18.2996471,9.89271837 C18.6416808,9.4372393 19.1140216,9.20951442 19.7166693,9.20951442 C20.3372956,9.20951442 20.8142417,9.4372393 21.1473009,9.89271837 C21.3991471,10.2232461 21.5250555,10.7455514 21.5250555,11.4595465 Z M16.5319413,7 L17.9081356,7 L16.2750175,12.3436979 L16.2750175,15.9729699 L14.9252152,15.9729699 L14.9252152,12.3436979 C14.7992773,11.6832577 14.5249359,10.7367331 14.1021909,9.50421204 C13.7691612,8.58478709 13.4767232,7.75005951 13.2247294,7 L14.655361,7 L15.6136518,10.5220453 L16.5319413,7 Z M30,24.089474 C30,26.1790761 29.8831842,27.741539 29.6494346,28.7769797 C29.5233787,29.3040018 29.2624104,29.7460629 28.8664117,30.1029872 C28.470413,30.4600872 28.0116816,30.6652535 27.4902174,30.7188375 C25.834604,30.9062499 23.3378698,31 19.9999852,31 C16.6621302,31 14.165396,30.9062499 12.5099007,30.7188375 C11.9878461,30.6652535 11.526812,30.4600872 11.1267689,30.1029872 C10.7267258,29.7460629 10.4680602,29.3040018 10.3506835,28.7769797 C10.1169339,27.7769883 10,26.2145254 10,24.089474 C10,21.999989 10.1169339,20.4375555 10.3506835,19.4019683 C10.4766213,18.8749754 10.7375601,18.4330022 11.1335588,18.0760487 C11.5295575,17.7190072 11.9929237,17.5092413 12.5233919,17.446751 C14.1700013,17.2682157 16.6621302,17.178948 19.9999852,17.178948 C23.3378698,17.178948 25.834604,17.2682157 27.4902174,17.446751 C28.0121834,17.5092413 28.473188,17.7190072 28.8732606,18.0760487 C29.2732447,18.4330022 29.5320284,18.8749754 29.6494346,19.4019683 C29.8831842,20.4019597 30,21.9645105 30,24.089474 Z M20.2970581,14.0312586 L20.2970581,11.2187551 C20.2970581,10.602729 20.103546,10.2947599 19.7166693,10.2947599 C19.3296451,10.2947599 19.1361626,10.602729 19.1361626,11.2187551 L19.1361626,14.0312586 C19.1361626,14.6562203 19.3296451,14.9687597 19.7166693,14.9687597 C20.103546,14.9687597 20.2970581,14.6562203 20.2970581,14.0312586 Z M28.5021189,26.2592911 L28.5021189,26.0852088 L27.274151,26.0852088 C27.274151,26.5408051 27.2649994,26.8130613 27.2469028,26.9019774 C27.1839339,27.2235696 27.0040311,27.3842339 26.707224,27.3842339 C26.2935716,27.3842339 26.0868044,27.076294 26.0868044,26.4602386 L26.0868044,25.2947782 L28.5021189,25.2947782 L28.5021189,23.9155382 C28.5021189,23.21001 28.3806978,22.692275 28.1378261,22.362216 C27.7872607,21.9067369 27.3103146,21.6790121 26.707224,21.6790121 C26.0955722,21.6790121 25.6142275,21.9067369 25.2631012,22.362216 C25.0111074,22.6927438 24.8851991,23.2105667 24.8851991,23.9155382 L24.8851991,26.2322793 C24.8851991,26.9378075 25.0156241,27.4555425 25.2765924,27.7854844 C25.6272464,28.2410513 26.1131965,28.4688055 26.7344131,28.4688055 C27.3824351,28.4688055 27.8683557,28.2322622 28.1922634,27.7592343 C28.3540991,27.5182379 28.4485082,27.2772415 28.4757269,27.0362159 C28.4938234,26.9557665 28.502975,26.6967819 28.502975,26.2592911 L28.5021189,26.2592911 Z M23.9411965,26.3927092 L23.9411965,23.754288 C23.9411965,23.1022853 23.9007228,22.6602242 23.8195393,22.4282513 C23.6664418,21.9282702 23.3469623,21.6783382 22.8612484,21.6783382 C22.4114029,21.6783382 21.992909,21.9192174 21.6060619,22.4012395 L21.6060619,19.4950153 L20.405106,19.4950153 L20.405106,28.3742644 L21.6060619,28.3742644 L21.6060619,27.731578 C22.0110055,28.2225357 22.4294995,28.4679852 22.8612484,28.4679852 C23.3469623,28.4679852 23.6664418,28.2225357 23.8195393,27.731578 C23.9007228,27.4905524 23.9411965,27.0440088 23.9411965,26.3920061 L23.9411965,26.3927092 Z M18.1514502,28.3750847 L19.3523765,28.3750847 L19.3523765,21.759227 L18.1514502,21.759227 L18.1514502,26.8217332 C17.8813893,27.1967922 17.6249083,27.3842339 17.3821547,27.3842339 C17.220378,27.3842339 17.1259393,27.2904838 17.0987207,27.1030714 C17.0895986,27.0760597 17.0851114,26.9197313 17.0851114,26.6343208 L17.0851114,21.759227 L15.884185,21.759227 L15.884185,26.9958154 C15.884185,27.4332183 15.9202895,27.7592343 15.9922329,27.973717 C16.1000742,28.3042448 16.3611606,28.4694793 16.7752558,28.4694793 C17.2070048,28.4694793 17.6657363,28.1972231 18.1514502,27.6527108 L18.1514502,28.3757292 L18.1514502,28.3750847 Z M14.2646761,20.7542258 L15.7089171,20.7542258 L15.7089171,19.4950153 L11.4986782,19.4950153 L11.4986782,20.7542258 L12.9157005,20.7542258 L12.9157005,28.3750847 L14.2654732,28.3750847 L14.2654732,20.7542258 L14.2646761,20.7542258 Z M27.3013106,23.6740731 L27.3013106,24.2897477 L26.0868044,24.2897477 L26.0868044,23.6740731 C26.0868044,23.0670704 26.289291,22.7635544 26.6944118,22.7635544 C27.0995325,22.7635544 27.3020191,23.0670704 27.3020191,23.6740731 L27.3013106,23.6740731 Z M22.7395912,23.6605672 L22.7395912,26.4865765 C22.7395912,27.0845265 22.5643232,27.38356 22.2136397,27.38356 C22.0065183,27.38356 21.8040317,27.2852396 21.6060619,27.0887452 L21.6060619,23.0575782 C21.8040317,22.8610838 22.0065183,22.7627634 22.2136397,22.7627634 C22.5643232,22.7627634 22.7395912,23.061797 22.7395912,23.6597469 L22.7395912,23.6605672 Z" id="Fill-1" fill="#FFFFFF"></path>
                </g>
            </g>
        </g>
    </g>
</svg>