<?xml version="1.0" encoding="UTF-8"?>
<svg width="40px" height="40px" viewBox="0 0 40 40" version="1.1" xmlns="http://www.w3.org/2000/svg" xmlns:xlink="http://www.w3.org/1999/xlink">
    <!-- Generator: Sketch 52.5 (67469) - http://www.bohemiancoding.com/sketch -->
    <title>icon_1_tweeter</title>
    <desc>Created with Sketch.</desc>
    <g id="定稿" stroke="none" stroke-width="1" fill="none" fill-rule="evenodd">
        <g id="1.首页" transform="translate(-32.000000, -460.000000)">
            <g id="跳转" transform="translate(32.000000, 390.000000)">
                <g id="icon_1_tweeter" transform="translate(0.000000, 70.000000)">
                    <circle id="Oval" fill="#FFFFFF" cx="20" cy="20" r="20"></circle>
                    <path d="M28.1681121,16.9070128 L28.1681121,16.3812422 C28.8849023,15.767856 29.5221243,15.0668028 30,14.1905698 C29.362778,14.5411349 28.6459878,14.7163404 27.8495594,14.8039817 C28.6459878,14.278211 29.2035483,13.4896193 29.4424628,12.4381294 C28.7256726,12.876233 27.9292209,13.2266955 27.1327692,13.401978 C26.4955705,12.5257706 25.5397958,12 24.424768,12 C22.3539889,12 20.7610155,13.8401074 20.7610155,16.2059597 C20.7610155,16.5564221 20.7610155,16.9070128 20.840677,17.169834 C17.8141232,17.0821927 15.1062153,15.3297266 13.2743274,12.7010532 C12.9557747,13.3143367 12.7964517,14.1030312 12.7964517,14.8916229 C12.7964517,16.3812422 13.4336504,17.6955789 14.4689933,18.4841707 C13.8318879,18.4841707 13.2743274,18.3089909 12.7167902,17.9584258 L12.7167902,18.046067 C12.7167902,20.1490982 13.9911176,21.9015386 15.6636825,22.339668 C15.424768,22.339668 15.1062153,22.4273092 14.7080012,22.4273092 C14.4689933,22.4273092 14.2301021,22.4273092 13.9911176,22.339668 C14.4689933,24.0921084 15.8230055,25.3189065 17.4158856,25.3189065 C16.2212197,26.4579607 14.6283396,27.1590139 12.8761132,27.1590139 C12.5575605,27.1590139 12.3185527,27.1590139 12,27.0713726 C13.5929034,28.2980681 15.5841144,28.9991212 17.6548935,28.9991212 C24.424768,29.0867625 28.1681121,22.6024891 28.1681121,16.9070128" id="Fill-1" fill="#5F5753"></path>
                </g>
            </g>
        </g>
    </g>
</svg>